<?xml version="1.0" encoding="UTF-8" standalone="no"?>
<svg
   xmlns:dc="http://purl.org/dc/elements/1.1/"
   xmlns:cc="http://creativecommons.org/ns#"
   xmlns:rdf="http://www.w3.org/1999/02/22-rdf-syntax-ns#"
   xmlns:svg="http://www.w3.org/2000/svg"
   xmlns="http://www.w3.org/2000/svg"
   xmlns:sodipodi="http://sodipodi.sourceforge.net/DTD/sodipodi-0.dtd"
   xmlns:inkscape="http://www.inkscape.org/namespaces/inkscape"
   inkscape:version="1.0beta2 (2b71d25, 2019-12-03)"
   height="248.3"
   width="312"
   sodipodi:docname="pluginIcon.svg"
   xml:space="preserve"
   viewBox="0 0 312 248.3"
   y="0px"
   x="0px"
   id="Layer_1"
   version="1.1"><metadata
   id="metadata27"><rdf:RDF><cc:Work
       rdf:about=""><dc:format>image/svg+xml</dc:format><dc:type
         rdf:resource="http://purl.org/dc/dcmitype/StillImage" /><dc:title></dc:title></cc:Work></rdf:RDF></metadata><defs
   id="defs25" /><sodipodi:namedview
   inkscape:current-layer="Layer_1"
   inkscape:window-maximized="0"
   inkscape:window-y="116"
   inkscape:window-x="944"
   inkscape:cy="124.2"
   inkscape:cx="164.00767"
   inkscape:zoom="1.8107639"
   fit-margin-bottom="12"
   fit-margin-right="12"
   fit-margin-left="12"
   fit-margin-top="12"
   lock-margins="true"
   showgrid="false"
   id="namedview23"
   inkscape:window-height="1011"
   inkscape:window-width="1455"
   inkscape:pageshadow="2"
   inkscape:pageopacity="0"
   guidetolerance="10"
   gridtolerance="10"
   objecttolerance="10"
   borderopacity="1"
   inkscape:document-rotation="0"
   bordercolor="#666666"
   pagecolor="#ffffff" />
<style
   id="style10"
   type="text/css">
	.st0{fill:#6515DD;}
</style>
<g
   transform="translate(-132,-163.8)"
   id="g20">
	<g
   id="g18">
		<g
   id="g14">
			<path
   inkscape:connector-curvature="0"
   id="path12"
   d="m 164.9,358.3 c -11.5,0 -20.9,9.4 -20.9,20.9 0,11.5 9.4,20.9 20.9,20.9 11.5,0 20.9,-9.4 20.9,-20.9 0,-11.5 -9.3,-20.9 -20.9,-20.9 z"
   class="st0" />
		</g>
		<path
   inkscape:connector-curvature="0"
   id="path16"
   d="m 422.2,175.8 -131.6,42 v -41.5 l -141.9,45.3 v 120.3 l 122.4,-39.1 v 41.3 L 432,292.8 388.4,250.2 Z M 271.1,282.2 168.3,315 v -79.1 l 102.8,-32.8 z m 124.5,1.7 -105,33.5 v -79 l 96.7,-30.9 -22.2,46.8 z"
   class="st0" />
	</g>
</g>
</svg>
